<!-- Generated by IcoMoon.io -->
<svg version="1.1" xmlns="http://www.w3.org/2000/svg" width="55" viewBox="0 0 41 41">
<title>react</title>
<path fill="#882547" d="M15.317 13c0 1.28-1.037 2.317-2.317 2.317s-2.317-1.037-2.317-2.317c0-1.28 1.037-2.317 2.317-2.317s2.317 1.037 2.317 2.317z"></path>
<path fill="#882547" d="M6.509 17.61l-0.511-0.13c-3.811-0.963-5.997-2.598-5.997-4.484s2.186-3.521 5.997-4.484l0.511-0.129 0.144 0.507c0.442 1.512 0.945 2.797 1.543 4.027l-0.066-0.151 0.109 0.231-0.109 0.231c-0.533 1.080-1.036 2.366-1.431 3.697l-0.046 0.179-0.144 0.506zM5.76 9.696c-2.897 0.814-4.675 2.058-4.675 3.3 0 1.24 1.778 2.485 4.675 3.3 0.416-1.316 0.85-2.409 1.351-3.464l-0.070 0.164c-0.432-0.892-0.866-1.985-1.228-3.11l-0.053-0.19zM19.491 17.61l-0.144-0.508c-0.442-1.51-0.944-2.796-1.544-4.025l0.066 0.15-0.109-0.231 0.109-0.231c0.533-1.080 1.036-2.365 1.432-3.697l0.046-0.18 0.144-0.507 0.512 0.129c3.81 0.963 5.996 2.598 5.996 4.485s-2.186 3.521-5.996 4.484l-0.512 0.13zM18.959 12.996c0.52 1.126 0.95 2.232 1.28 3.3 2.898-0.815 4.675-2.059 4.675-3.3 0-1.242-1.778-2.485-4.675-3.3-0.415 1.315-0.849 2.408-1.35 3.463l0.070-0.163z"></path>
<path fill="#882547" d="M5.753 9.69l-0.144-0.506c-1.071-3.776-0.746-6.483 0.892-7.427 1.607-0.927 4.186 0.168 6.889 2.942l0.368 0.378-0.368 0.378c-0.931 0.967-1.793 2.016-2.569 3.131l-0.055 0.084-0.146 0.209-0.255 0.022c-1.523 0.122-2.922 0.357-4.277 0.699l0.177-0.038-0.511 0.129zM7.807 2.508c-0.29 0-0.547 0.063-0.764 0.187-1.077 0.621-1.268 2.779-0.525 5.691 0.983-0.232 2.178-0.423 3.396-0.535l0.106-0.008c0.726-1.027 1.456-1.926 2.24-2.774l-0.017 0.018c-1.69-1.646-3.29-2.579-4.436-2.579zM18.195 24.567c-0.001 0-0.001 0 0 0-1.544 0-3.526-1.162-5.583-3.275l-0.368-0.378 0.368-0.378c0.931-0.967 1.793-2.017 2.568-3.132l0.055-0.084 0.146-0.209 0.254-0.022c1.523-0.122 2.923-0.355 4.279-0.698l-0.177 0.038 0.511-0.129 0.145 0.507c1.069 3.774 0.745 6.482-0.893 7.425-0.365 0.21-0.803 0.334-1.269 0.334-0.013 0-0.026-0-0.038-0l0.002 0zM13.757 20.904c1.69 1.646 3.29 2.579 4.436 2.579h0.001c0.289 0 0.547-0.063 0.763-0.187 1.077-0.621 1.269-2.78 0.525-5.692-0.984 0.232-2.179 0.424-3.398 0.535l-0.106 0.008c-0.725 1.028-1.455 1.927-2.238 2.775l0.016-0.018z"></path>
<path fill="#882547" d="M20.248 9.69l-0.511-0.129c-1.18-0.305-2.58-0.54-4.013-0.655l-0.090-0.006-0.254-0.022-0.146-0.209c-0.83-1.198-1.691-2.248-2.63-3.222l0.008 0.008-0.368-0.378 0.368-0.378c2.702-2.773 5.28-3.869 6.889-2.942 1.638 0.945 1.963 3.651 0.893 7.426l-0.145 0.507zM15.979 7.843c1.237 0.113 2.413 0.296 3.503 0.543 0.743-2.912 0.551-5.070-0.525-5.691-1.070-0.619-3.082 0.329-5.2 2.392 0.766 0.83 1.496 1.729 2.166 2.673l0.056 0.083zM7.807 24.567c-0.011 0-0.024 0-0.037 0-0.467 0-0.904-0.124-1.282-0.341l0.013 0.007c-1.638-0.944-1.963-3.65-0.892-7.425l0.143-0.507 0.511 0.129c1.251 0.315 2.631 0.537 4.1 0.66l0.255 0.022 0.145 0.209c0.831 1.198 1.693 2.248 2.632 3.223l-0.008-0.008 0.368 0.378-0.368 0.378c-2.056 2.113-4.039 3.275-5.58 3.275zM6.517 17.604c-0.743 2.912-0.551 5.071 0.525 5.692 1.069 0.61 3.080-0.33 5.2-2.392-0.766-0.83-1.496-1.729-2.167-2.673l-0.056-0.084c-1.324-0.119-2.518-0.311-3.684-0.578l0.182 0.035z"></path>
<path fill="#882547" d="M13 18.285c-0.892 0-1.808-0.039-2.726-0.115l-0.255-0.022-0.146-0.209c-0.442-0.624-0.926-1.374-1.379-2.144l-0.084-0.154c-0.368-0.616-0.789-1.407-1.178-2.216l-0.085-0.197-0.108-0.231 0.108-0.231c0.474-1.006 0.895-1.798 1.347-2.569l-0.084 0.155c0.448-0.776 0.941-1.549 1.463-2.299l0.146-0.209 0.255-0.022c0.817-0.073 1.767-0.115 2.726-0.115s1.91 0.042 2.848 0.124l-0.122-0.009 0.254 0.022 0.145 0.209c0.956 1.354 1.864 2.898 2.642 4.517l0.084 0.195 0.109 0.231-0.109 0.231c-0.86 1.813-1.768 3.358-2.794 4.814l0.068-0.101-0.145 0.209-0.254 0.022c-0.918 0.076-1.835 0.115-2.727 0.115zM10.62 17.11c1.603 0.12 3.157 0.12 4.761 0 0.816-1.174 1.607-2.522 2.297-3.929l0.082-0.185c-0.769-1.591-1.561-2.939-2.447-4.217l0.067 0.103c-0.712-0.057-1.542-0.090-2.38-0.090s-1.668 0.033-2.489 0.097l0.109-0.007c-0.819 1.176-1.612 2.524-2.3 3.932l-0.080 0.182c0.773 1.592 1.565 2.94 2.449 4.22l-0.069-0.105z"></path>
</svg>
