<svg xmlns="http://www.w3.org/2000/svg" viewBox="0 0 50 37.492" width="55">
  <defs>
    <style>
      .cls-1 {
        fill: #e82363;
      }
    </style>
  </defs>
  <path id="sass-brands" class="cls-1" d="M43.018,37.534a10.251,10.251,0,0,0-4.53,1.054,9.62,9.62,0,0,1-1.015-2.351,6.275,6.275,0,0,1-.086-1.976,16.64,16.64,0,0,1,.594-2.124c-.008-.086-.109-.515-1.117-.523s-1.874.2-1.976.461a9.594,9.594,0,0,0-.414,1.492,36.2,36.2,0,0,1-3.054,5.881,6.064,6.064,0,0,1-.7-1.718,6.275,6.275,0,0,1-.086-1.976,16.641,16.641,0,0,1,.594-2.124c-.008-.086-.109-.515-1.117-.523s-1.874.2-1.976.461-.211.89-.414,1.492-2.648,6.037-3.288,7.451c-.328.719-.609,1.3-.812,1.687s-.016.023-.031.07c-.172.336-.273.523-.273.523V44.8c-.133.25-.281.476-.351.476a3.24,3.24,0,0,1,.023-1.554c.367-1.89,1.234-4.827,1.226-4.928-.008-.055.164-.562-.57-.836a.919.919,0,0,0-1.031.172c-.062,0-.109.156-.109.156s.789-3.312-1.515-3.312c-1.437,0-3.437,1.578-4.421,3.007-.617.336-1.953,1.062-3.358,1.835l-1.617.89c-.039-.039-.07-.078-.109-.117-2.8-2.984-7.959-5.092-7.74-9.1.078-1.461.586-5.3,9.927-9.95,7.654-3.811,13.777-2.765,14.832-.437,1.515,3.319-3.273,9.5-11.223,10.388-3.03.336-4.624-.836-5.022-1.273-.414-.461-.476-.484-.633-.4-.258.141-.094.547,0,.789A4.706,4.706,0,0,0,14.5,32.863c1.461.476,5.014.742,9.31-.922C28.64,30.083,32.4,24.9,31.3,20.57c-1.125-4.4-8.427-5.85-15.339-3.4a34.755,34.755,0,0,0-11.77,6.748C.382,27.482-.227,30.583.023,31.879c.89,4.6,7.232,7.6,9.771,9.818-.125.07-.242.133-.351.2-1.273.633-6.108,3.163-7.318,5.834-1.367,3.03.226,5.2,1.273,5.5a7.8,7.8,0,0,0,8.4-3.405,8.454,8.454,0,0,0,.75-7.771c-.008-.023-.023-.039-.031-.062.328-.2.664-.391,1-.586.648-.383,1.281-.734,1.835-1.039a12.131,12.131,0,0,0-.656,3.327,6.914,6.914,0,0,0,1.492,4.819,1.641,1.641,0,0,0,1.2.391c1.078,0,1.562-.89,2.1-1.953.664-1.3,1.25-2.8,1.25-2.8s-.734,4.077,1.273,4.077c.734,0,1.468-.945,1.8-1.429V46.8s.016-.031.055-.094c.078-.117.117-.187.117-.187v-.023c.3-.508.945-1.671,1.921-3.593,1.265-2.484,2.476-5.584,2.476-5.584a15.717,15.717,0,0,0,.484,2.015,18.866,18.866,0,0,0,1.047,2.343c-.3.406-.476.64-.476.64a.024.024,0,0,0,.008.016c-.234.312-.5.648-.773.976a27.463,27.463,0,0,0-2.343,2.937.8.8,0,0,0,.219,1.07,1.9,1.9,0,0,0,1.226.2,5.416,5.416,0,0,0,1.835-.422,6.424,6.424,0,0,0,1.578-.828A3.526,3.526,0,0,0,32.7,43.15a6.468,6.468,0,0,0-.57-2.2c.086-.125.18-.258.266-.391a41.511,41.511,0,0,0,2.741-4.733,15.717,15.717,0,0,0,.484,2.015,13.784,13.784,0,0,0,.89,2.007,8.581,8.581,0,0,0-2.663,3.444c-.578,1.664-.125,2.413.726,2.585a2.621,2.621,0,0,0,1.336-.273,6.2,6.2,0,0,0,1.687-.867,3.775,3.775,0,0,0,1.859-3.093,5.811,5.811,0,0,0-.422-1.828,9.536,9.536,0,0,1,4.85-.562c4.35.508,5.2,3.226,5.038,4.358a2.868,2.868,0,0,1-1.382,1.953c-.3.187-.4.258-.375.4.039.2.18.2.437.148a3.393,3.393,0,0,0,2.367-3.023c.125-2.655-2.429-5.577-6.951-5.553Zm-33.53,11.3C8.052,50.405,6.037,51,5.17,50.5c-.929-.539-.562-2.851,1.211-4.522a23.145,23.145,0,0,1,3.39-2.531c.211-.125.515-.312.89-.539.062-.039.094-.055.094-.055.07-.047.148-.086.226-.133a6.232,6.232,0,0,1-1.492,6.115Zm10.5-7.139c-.5,1.226-1.554,4.35-2.195,4.186-.547-.141-.883-2.523-.109-4.866a10.772,10.772,0,0,1,1.71-3.132c.789-.883,1.656-1.164,1.859-.812.273.461-.953,3.858-1.265,4.624Zm8.669,4.139c-.211.109-.406.18-.5.125-.07-.039.086-.187.086-.187s1.086-1.164,1.515-1.695c.25-.312.539-.679.851-1.086,0,.039.008.078.008.125C30.608,44.516,29.265,45.461,28.655,45.836Zm6.686-1.523c-.156-.109-.133-.476.391-1.617a6.082,6.082,0,0,1,1.484-1.914,2.825,2.825,0,0,1,.148.844A2.753,2.753,0,0,1,35.341,44.313Z" transform="translate(0.026 -15.984)"/>
</svg>
