<!-- Generated by IcoMoon.io -->
<svg version="1.1" xmlns="http://www.w3.org/2000/svg" width="26" height="26" viewBox="0 0 26 26">
<title>git</title>
<path fill="#7E7E7E" d="M25.508 11.841l-11.352-11.351c-0.654-0.653-1.714-0.653-2.37 0l-2.352 2.356 2.99 2.99c0.699-0.233 1.494-0.076 2.046 0.478 0.559 0.558 0.713 1.363 0.475 2.058l2.88 2.882c0.699-0.242 1.503-0.084 2.058 0.471 0.781 0.78 0.781 2.041 0 2.821-0.779 0.779-2.038 0.779-2.817 0-0.584-0.586-0.73-1.448-0.438-2.162l-2.696-2.682v7.069c0.191 0.093 0.37 0.22 0.529 0.377 0.772 0.781 0.772 2.040 0 2.817-0.779 0.781-2.046 0.781-2.826 0-0.779-0.779-0.779-2.036 0-2.814 0.197-0.195 0.419-0.342 0.655-0.44v-7.138c-0.235-0.099-0.459-0.241-0.65-0.434-0.59-0.59-0.732-1.454-0.429-2.176l-2.938-2.952-7.785 7.779c-0.65 0.655-0.65 1.716 0 2.371l11.353 11.35c0.654 0.654 1.714 0.654 2.368 0l11.299-11.299c0.655-0.653 0.655-1.714 0-2.369z"></path>
</svg>
