<!-- Generated by IcoMoon.io -->
<svg version="1.1" xmlns="http://www.w3.org/2000/svg" width="26" height="26" viewBox="0 0 26 26">
<title>googlechrome</title>
<path fill="#7E7E7E" d="M17.565 9.414l7.275-1.819c0.733 1.579 1.16 3.427 1.16 5.374v0c0 7.148-5.884 13.030-13.035 13.030-0.327 0-0.655-0.012-0.983-0.037l5.314-9.043c0.386-0.407 0.71-0.87 0.954-1.377 0.358-0.739 0.566-1.607 0.566-2.524 0-0.954-0.226-1.856-0.628-2.654l0.015 0.034c-0.192-0.375-0.405-0.698-0.647-0.996l0.008 0.010zM14.055 18.704l-2.298 7.239c-6.625-0.652-11.757-6.291-11.757-12.967 0-2.584 0.768-5.11 2.208-7.256l5.237 9.075c0.195 0.584 1.212 2.796 3.323 3.604 1.081 0.414 2.211 0.521 3.288 0.305zM12.971 8.255c-2.173 0.021-4.201 1.673-4.638 3.805-0.057 0.279-0.090 0.6-0.090 0.929 0 1.344 0.547 2.56 1.43 3.439l0 0c1.315 1.285 3.402 1.709 5.129 1.004 1.525-0.624 2.676-2.088 2.915-3.717 0.295-2.011-0.854-4.151-2.703-5.015-0.591-0.281-1.284-0.445-2.015-0.445-0.010 0-0.020 0-0.030 0h0.002zM7.633 10.792l-5.186-5.416c2.399-3.273 6.229-5.375 10.549-5.377h0c4.94 0 9.473 2.808 11.672 7.231h-11.064c-1.962-0.135-3.562 0.563-4.62 1.574-0.571 0.548-1.028 1.21-1.337 1.949l-0.014 0.038z"></path>
</svg>
