<!-- Generated by IcoMoon.io -->
<svg version="1.1" xmlns="http://www.w3.org/2000/svg" width="26" height="26" viewBox="0 0 26 26">
<title>graphql</title>
<path fill="#7E7E7E" d="M15.222 2.98l5.346 3.087c0.884-0.931 2.354-0.967 3.285-0.083 0.16 0.152 0.297 0.326 0.408 0.517 0.638 1.114 0.251 2.534-0.862 3.172-0.189 0.108-0.391 0.19-0.605 0.242v6.174c1.241 0.296 2.009 1.542 1.712 2.783-0.052 0.221-0.138 0.433-0.251 0.629-0.641 1.108-2.059 1.489-3.171 0.847-0.212-0.122-0.406-0.281-0.57-0.465l-5.314 3.068c0.403 1.218-0.258 2.53-1.474 2.932-0.235 0.077-0.479 0.117-0.726 0.117-1.279 0.001-2.317-1.035-2.318-2.314 0-0.222 0.031-0.444 0.095-0.66l-5.347-3.084c-0.884 0.925-2.352 0.961-3.278 0.076-0.925-0.884-0.96-2.352-0.076-3.278 0.307-0.322 0.7-0.548 1.131-0.653l0.001-6.174c-1.246-0.299-2.013-1.552-1.713-2.799 0.051-0.214 0.133-0.421 0.243-0.613 0.641-1.109 2.061-1.489 3.171-0.847 0.192 0.109 0.367 0.247 0.52 0.408l5.35-3.087c-0.364-1.227 0.337-2.516 1.561-2.878 0.213-0.064 0.438-0.095 0.661-0.095 1.279-0.001 2.317 1.033 2.318 2.312 0.001 0.226-0.033 0.453-0.096 0.668zM14.664 3.93c-0.021 0.023-0.040 0.042-0.063 0.063l6.999 12.122c0.028-0.010 0.061-0.017 0.089-0.025v-6.183c-1.24-0.307-1.995-1.562-1.688-2.804 0.006-0.026 0.013-0.053 0.021-0.078l-5.358-3.096zM11.398 3.994l-0.065-0.065-5.358 3.090c0.354 1.23-0.354 2.511-1.583 2.865-0.028 0.009-0.055 0.015-0.082 0.023v6.184l0.091 0.025 6.997-12.121zM13.647 4.543c-0.422 0.121-0.87 0.121-1.291 0l-6.998 12.121c0.319 0.307 0.544 0.699 0.65 1.128h13.987c0.105-0.431 0.333-0.824 0.653-1.131l-7.001-12.118zM14.715 22.123l5.322-3.074c-0.016-0.051-0.029-0.102-0.041-0.154h-13.992l-0.023 0.090 5.351 3.090c0.42-0.438 1.012-0.707 1.668-0.707 0.679 0 1.289 0.291 1.715 0.756z"></path>
</svg>
