<svg xmlns="http://www.w3.org/2000/svg" viewBox="0 0 26 26" width="26">
  <defs>
    <style>
      .cls-1 {
        fill: #7e7e7e;
      }
    </style>
  </defs>
  <path id="js-brands" class="cls-1" d="M0,32V58H26V32ZM14.149,52.278a3.322,3.322,0,0,1-3.65,3.685,3.8,3.8,0,0,1-3.668-2.234l1.991-1.2c.383.679.731,1.254,1.573,1.254.8,0,1.312-.313,1.312-1.538v-8.3h2.443v8.34Zm5.78,3.685a4.689,4.689,0,0,1-4.451-2.5l1.991-1.149A2.666,2.666,0,0,0,19.877,53.8c1.01,0,1.66-.5,1.66-1.207,0-.836-.662-1.132-1.782-1.625l-.609-.261c-1.764-.749-2.931-1.695-2.931-3.685A3.264,3.264,0,0,1,19.79,43.8a3.6,3.6,0,0,1,3.471,1.956l-1.9,1.219a1.662,1.662,0,0,0-1.573-1.045,1.061,1.061,0,0,0-1.167,1.045c0,.731.453,1.027,1.5,1.486l.609.261c2.078.888,3.244,1.8,3.244,3.842,0,2.194-1.729,3.4-4.045,3.4Z" transform="translate(0 -32)"/>
</svg>
