<!-- Generated by IcoMoon.io -->
<svg version="1.1" xmlns="http://www.w3.org/2000/svg" width="26" height="26" viewBox="0 0 26 26">
<title>mongodb</title>
<path fill="#7E7E7E" d="M18.612 10.311c-1.368-6.023-4.595-8.003-4.942-8.76-0.381-0.534-0.794-1.551-0.794-1.551-0.002 0.021-0.004 0.034-0.005 0.053v0.014h-0.001c-0.002 0.016-0.003 0.027-0.004 0.042v0.016h-0.002c0 0.011-0.002 0.019-0.002 0.028v0.028h-0.003c-0.001 0.009-0.001 0.019-0.003 0.027v0.023h-0.002c0 0.008 0 0.016-0.002 0.023v0.022h-0.002c0 0.011-0.001 0.024-0.002 0.035v0.002c-0.003 0.018-0.006 0.037-0.010 0.054v0.009h-0.002c-0.001 0.004-0.003 0.009-0.003 0.013v0.018h-0.003v0.024h-0.005v0.020h-0.005v0.023h-0.004v0.021h-0.004v0.018h-0.006v0.015h-0.004v0.020h-0.004v0.015h-0.005v0.014h-0.003v0.016h-0.004c-0.001 0.001-0.001 0.003-0.001 0.004v0.011h-0.003c-0.001 0.002-0.001 0.004-0.001 0.007v0.006h-0.002c-0.001 0.003-0.002 0.009-0.002 0.011-0.003 0.008-0.008 0.015-0.011 0.023v0.002c-0.002 0.002-0.004 0.005-0.005 0.008v0.009h-0.004v0.009h-0.005v0.009h-0.003v0.011h-0.007v0.015h-0.004v0.004h-0.004v0.009h-0.004v0.012h-0.004v0.009h-0.006v0.012h-0.004v0.009h-0.005v0.009h-0.003v0.011h-0.005v0.009h-0.004v0.006h-0.004v0.009h-0.007v0.010h-0.004v0.006h-0.005v0.009h-0.004v0.012h-0.005v0.004h-0.003v0.009h-0.006v0.004h-0.004v0.011h-0.004v0.004h-0.004v0.009h-0.005v0.006h-0.003l-0.002 0.004v0.004h-0.002c-0.001 0.002-0.002 0.002-0.002 0.004v0.001h-0.001c-0.001 0.003-0.002 0.005-0.004 0.008v0.003h-0.001c-0.005 0.006-0.009 0.013-0.013 0.019v0.001c-0.002 0.002-0.008 0.006-0.010 0.011v0.002h-0.001c-0.001 0.001-0.003 0.002-0.003 0.003v0.003h-0.002l-0.003 0.003v0.001h-0.001c0 0.001-0.002 0.002-0.003 0.004v0.004h-0.003l-0.002 0.002v0.002h-0.002c0 0.002-0.002 0.002-0.002 0.003v0.003h-0.004c0 0.001-0.001 0.002-0.002 0.003v0.007h-0.003v0.004h-0.004v0.006h-0.004v0.009h-0.005v-0.009h-0.005v0.004h-0.004v0.007h-0.005v0.009h-0.005v0.004h-0.004v0.006h-0.004v0.004h-0.004v0.009h-0.006v0.004h-0.004v0.006h-0.005v0.004h-0.004v0.005h-0.005v0.011h-0.002v0.004h-0.006v0.005h-0.004v0.002h-0.004v0.004h-0.005v0.011h-0.004v0.004h-0.005v0.004h-0.004v0.006h-0.005v0.004h-0.005v0.004h-0.004v0.004h-0.004v0.011h-0.004v0.005h-0.006v0.004h-0.004v0.004h-0.005v0.006h-0.004v0.004h-0.005v0.008h-0.004v0.004h-0.006v0.006h-0.002v0.004h-0.004v0.004h-0.005v0.004h-0.004v0.006h-0.005v0.004h-0.003c-0.001 0.001-0.001 0.002-0.001 0.002v0.002h-0.002l-0.004 0.004s-0.002 0.002-0.004 0.003v0.006h-0.004v0.005h-0.004v0.004h-0.004v0.004h-0.003l-0.003 0.003v0.003h-0.002l-0.002 0.002v0.003h-0.002c-0.005 0.007-0.008 0.011-0.015 0.017-0.002 0.002-0.009 0.008-0.013 0.011-0.013 0.009-0.029 0.023-0.042 0.035-0.009 0.005-0.017 0.013-0.024 0.018v0.001h-0.001c-0.017 0.014-0.034 0.027-0.053 0.042v0.001c-0.026 0.022-0.051 0.042-0.080 0.067v-0.001h-0.002c-0.062 0.051-0.127 0.108-0.201 0.172v0.001h-0.001c-0.183 0.16-0.401 0.366-0.645 0.615l-0.021 0.021c-1.473 1.524-3.795 4.701-4.040 9.833-0.022 0.425-0.017 0.837 0.006 1.239v0.010c0.118 2.023 0.753 3.749 1.547 5.152v0.001c0.316 0.559 0.658 1.067 1.003 1.522v0.001c1.194 1.576 2.413 2.51 2.723 2.736 0.478 1.108 0.433 3.011 0.433 3.011l0.698 0.233s-0.142-1.843 0.057-2.732c0.062-0.278 0.208-0.516 0.378-0.717 0.115-0.081 0.455-0.326 0.863-0.699 0.020-0.021 0.030-0.039 0.048-0.059 1.648-1.536 4.725-5.319 3.67-11.482z"></path>
</svg>
