<svg xmlns="http://www.w3.org/2000/svg" viewBox="0 0 23.051 26" width="26">
  <defs>
    <style>
      .cls-1 {
        fill: #27282C;
        opacity: 0.5;
      }
    </style>
  </defs>
  <g id="Group_2" data-name="Group 2" transform="translate(-1589 -269)">
    <path id="node-js-brands" class="cls-1" d="M12.221,30.05a2.021,2.021,0,0,1-1-.268L8.036,27.9c-.475-.268-.242-.361-.088-.413a6.271,6.271,0,0,0,1.439-.655.233.233,0,0,1,.237.021l2.445,1.45a.3.3,0,0,0,.294,0l9.529-5.5a.305.305,0,0,0,.144-.258v-11a.307.307,0,0,0-.15-.263L12.365,5.786a.3.3,0,0,0-.294,0l-9.519,5.5a.3.3,0,0,0-.15.263V22.543a.285.285,0,0,0,.15.253L5.163,24.3c1.419.707,2.286-.124,2.286-.965V12.483a.273.273,0,0,1,.279-.273H8.934a.276.276,0,0,1,.279.273v10.86a2.641,2.641,0,0,1-2.822,2.972,4.052,4.052,0,0,1-2.193-.6L1.7,24.277a2.006,2.006,0,0,1-1-1.739V11.544a2.012,2.012,0,0,1,1-1.739l9.519-5.5a2.089,2.089,0,0,1,2,0l9.529,5.5a2.006,2.006,0,0,1,1,1.739V22.543a2.019,2.019,0,0,1-1,1.739l-9.529,5.5A2.007,2.007,0,0,1,12.221,30.05Zm7.692-10.84c0-2.059-1.393-2.605-4.318-2.992-2.961-.392-3.261-.593-3.261-1.285,0-.573.253-1.336,2.445-1.336,1.955,0,2.678.423,2.977,1.744a.276.276,0,0,0,.268.217h1.238a.269.269,0,0,0,.2-.088.287.287,0,0,0,.072-.212c-.191-2.275-1.7-3.333-4.757-3.333-2.719,0-4.339,1.145-4.339,3.07,0,2.084,1.615,2.662,4.22,2.92,3.121.3,3.364.764,3.364,1.378,0,1.063-.856,1.517-2.863,1.517-2.523,0-3.075-.635-3.261-1.888a.273.273,0,0,0-.273-.232H10.394a.272.272,0,0,0-.273.273c0,1.6.872,3.519,5.046,3.519,3.013-.005,4.747-1.2,4.747-3.271Z" transform="translate(1588.3 264.95)"/>
  </g>
</svg>
