<?xml version="1.0" encoding="iso-8859-1"?>
<!-- Generator: Adobe Illustrator 19.0.0, SVG Export Plug-In . SVG Version: 6.00 Build 0)  -->
<svg xmlns="http://www.w3.org/2000/svg" xmlns:xlink="http://www.w3.org/1999/xlink" x="0px" y="0px" viewBox="0 0 512 512" style="enable-background:new 0 0 512 512;" xml:space="preserve" width="26px" height="26px">
<g>
	<g>
		<path d="M0,0v330h512V0H0z M482,300h-68.787L482,231.213V300z M392,278.788V210h68.787L392,278.788z M482,180H362v120H30V30h452    V180z" fill="#7e7e7e"/>
	</g>
</g>
<g>
	<g>
		<path d="M0,360v152h512V360H0z M482,482H30v-92h30.25v60h30v-60h30.25v30h30v-30h30.25v60h30v-60H241v30h30v-30h30.25v60h30v-60    h30.25v30h30v-30h30.25v60h30v-60H482V482z" fill="#7e7e7e"/>
	</g>
</g>
<g>
	<g>
		<path d="M60,60v210h271.5V60H60z M301.5,240H90V90h211.5V240z" fill="#7e7e7e"/>
	</g>
</g>
</svg>
