<!-- Generated by IcoMoon.io -->
<svg version="1.1" xmlns="http://www.w3.org/2000/svg" width="26" height="26" viewBox="0 0 26 26">
<title>redux</title>
<path fill="#7E7E7E" d="M18.019 17.879c0.941-0.081 1.672-0.91 1.624-1.9-0.050-0.99-0.861-1.785-1.85-1.785h-0.066c-1.022 0.034-1.818 0.893-1.785 1.916 0.032 0.519 0.245 0.941 0.535 1.249-1.135 2.208-2.839 3.831-5.421 5.195-1.737 0.908-3.571 1.25-5.356 1.006-1.493-0.21-2.661-0.878-3.376-1.948-1.070-1.624-1.168-3.376-0.276-5.128 0.651-1.266 1.624-2.192 2.274-2.647-0.163-0.421-0.358-1.135-0.455-1.671-4.806 3.442-4.317 8.148-2.857 10.372 1.088 1.623 3.312 2.661 5.746 2.661 0.649 0 1.331-0.048 1.997-0.21 4.221-0.811 7.418-3.343 9.252-7.076l0.015-0.034z"></path>
<path fill="#7E7E7E" d="M23.813 13.821c-2.514-2.954-6.216-4.577-10.437-4.577h-0.553c-0.274-0.6-0.907-0.974-1.622-0.974h-0.049c-1.022 0-1.818 0.877-1.784 1.899 0.032 0.973 0.86 1.785 1.85 1.785h0.080c0.731-0.032 1.364-0.488 1.623-1.136h0.601c2.501 0 4.87 0.73 7.029 2.158 1.654 1.088 2.84 2.515 3.506 4.221 0.583 1.395 0.551 2.759-0.049 3.897-0.925 1.784-2.484 2.727-4.545 2.727-1.299 0-2.564-0.406-3.214-0.698-0.389 0.323-1.039 0.859-1.51 1.184 1.428 0.648 2.873 1.022 4.268 1.022 3.166 0 5.517-1.784 6.411-3.506 0.973-1.948 0.893-5.226-1.591-8.034l-0.015 0.032z"></path>
<path fill="#7E7E7E" d="M7.031 18.462c0.031 0.974 0.859 1.785 1.85 1.785h0.065c1.039-0.032 1.834-0.892 1.785-1.915 0-0.974-0.844-1.784-1.834-1.784h-0.066c-0.065 0-0.161 0-0.244 0.031-1.347-2.273-1.915-4.708-1.703-7.335 0.129-1.98 0.779-3.702 1.947-5.13 0.974-1.218 2.808-1.819 4.058-1.85 3.506-0.066 4.967 4.302 5.080 6.038l1.623 0.486c-0.374-5.324-3.683-8.116-6.849-8.116-2.971 0-5.712 2.159-6.817 5.325-1.509 4.221-0.519 8.278 1.331 11.524-0.161 0.211-0.259 0.584-0.226 0.94z"></path>
</svg>
