<!-- Generated by IcoMoon.io -->
<svg version="1.1" xmlns="http://www.w3.org/2000/svg" width="26" height="26" viewBox="0 0 26 26">
<title>expand</title>
<path fill="#27282C" d="M26 24.781v-23.563c0-0.672-0.547-1.219-1.219-1.219h-23.563c-0.672 0-1.219 0.547-1.219 1.219v7.313c0 0.224 0.182 0.406 0.406 0.406s0.406-0.182 0.406-0.406v-7.313c0-0.224 0.183-0.406 0.406-0.406h23.563c0.223 0 0.406 0.182 0.406 0.406v23.563c0 0.224-0.183 0.406-0.406 0.406h-7.313c-0.224 0-0.406 0.182-0.406 0.406s0.182 0.406 0.406 0.406h7.313c0.672 0 1.219-0.547 1.219-1.219zM1.219 10.563c-0.672 0-1.219 0.547-1.219 1.219v13c0 0.672 0.547 1.219 1.219 1.219h13c0.672 0 1.219-0.547 1.219-1.219v-13.644l5.688-5.688v5.519c0 0.224 0.182 0.406 0.406 0.406s0.406-0.182 0.406-0.406v-6.5c0-0.224-0.182-0.406-0.406-0.406h-6.5c-0.224 0-0.406 0.182-0.406 0.406s0.182 0.406 0.406 0.406h5.519l-5.688 5.688h-13.644zM14.625 24.781c0 0.224-0.183 0.406-0.406 0.406h-13c-0.223 0-0.406-0.182-0.406-0.406v-13c0-0.224 0.183-0.406 0.406-0.406h13.406v13.406z"></path>
</svg>
