<svg xmlns="http://www.w3.org/2000/svg" viewBox="0 0 26 26" width="26">
  <defs>
    <style>
      .cls-1 {
        fill: #7e7e7e;
      }
    </style>
  </defs>
  <path id="Subtraction_1" data-name="Subtraction 1" class="cls-1" d="M-4458,45h-26V19h26V45Zm-8.4-6.946-2.25.219a4.387,4.387,0,0,0,1.391,2.926,4.983,4.983,0,0,0,3.335,1,6.516,6.516,0,0,0,2.493-.419,3.288,3.288,0,0,0,1.546-1.277,3.387,3.387,0,0,0,.547-1.843,3.422,3.422,0,0,0-.457-1.824,3.238,3.238,0,0,0-1.265-1.165,11.3,11.3,0,0,0-2.5-.824,6.129,6.129,0,0,1-2.125-.765.886.886,0,0,1-.343-.7.838.838,0,0,1,.367-.711,2.655,2.655,0,0,1,1.578-.414,2.342,2.342,0,0,1,1.465.387,1.971,1.971,0,0,1,.637,1.269l2.313-.1a3.357,3.357,0,0,0-1.145-2.524,4.859,4.859,0,0,0-3.247-.945,5.759,5.759,0,0,0-2.254.4,3.122,3.122,0,0,0-1.429,1.16,2.96,2.96,0,0,0-.5,1.637,2.992,2.992,0,0,0,1.055,2.3,6.3,6.3,0,0,0,2.61,1.132c.975.243,1.58.407,1.851.5a1.9,1.9,0,0,1,.833.5,1.049,1.049,0,0,1,.237.692,1.414,1.414,0,0,1-.566,1.105,2.584,2.584,0,0,1-1.684.473,2.5,2.5,0,0,1-1.676-.531,2.765,2.765,0,0,1-.825-1.664Zm-12.257-7.507v1.937h3.4V42h2.313V32.484h3.391V30.547Z" transform="translate(4484 -19)"/>
</svg>
