<!-- Generated by IcoMoon.io -->
<svg version="1.1" xmlns="http://www.w3.org/2000/svg" width="29" height="29" viewBox="0 0 26 26">
<title>webpack</title>
<path fill="#7E7E7E" d="M22.767 19.63l-9.387 5.286v-4.117l5.848-3.203 3.538 2.034zM23.409 19.051v-11.056l-3.435 1.974v7.106l3.435 1.976zM3.17 19.63l9.387 5.286v-4.117l-5.848-3.203-3.538 2.034zM2.527 19.051v-11.056l3.435 1.974v7.106l-3.435 1.976zM2.929 7.28l9.627-5.423v3.981l-6.214 3.404-3.413-1.963zM23.007 7.28l-9.627-5.423v3.981l6.214 3.404 3.412-1.963zM12.556 19.863l-5.77-3.158v-6.259l5.77 3.317v6.1zM13.38 19.863l5.77-3.158v-6.259l-5.77 3.317v6.1zM7.177 9.721l5.792-3.172 5.792 3.172-5.792 3.331-5.792-3.331z"></path>
</svg>
