<!-- Generated by IcoMoon.io -->
<svg version="1.1" xmlns="http://www.w3.org/2000/svg" width="25" height="26" viewBox="0 0 25 26">
<title>tools</title>
<path fill="#27282C" d="M0.171 4.587c-0.688 0.689-0.541 1.659 0.007 2.206 0.022 0.021 2.221 2.122 5.315 5.215 0.080 0.080 0.184 0.119 0.288 0.119s0.208-0.040 0.288-0.119c0.158-0.158 0.158-0.416 0-0.574-0.466-0.466-0.91-0.908-1.331-1.325l1.291-1.291c0.158-0.158 0.158-0.416 0-0.574s-0.416-0.158-0.574 0l-1.294 1.294c-0.724-0.715-1.362-1.339-1.881-1.845l2.937-2.937c0.158-0.158 0.158-0.416 0-0.574s-0.416-0.158-0.574 0l-2.946 2.946c-0.598-0.579-0.942-0.908-0.948-0.914-0.171-0.171-0.397-0.654 0-1.051l4.063-4.063c0.157-0.159 0.574-0.475 1.033-0.020 0.020 0.023 2.072 2.353 5.203 5.484 0.158 0.158 0.416 0.158 0.574 0s0.158-0.416 0-0.574c-3.112-3.111-5.148-5.423-5.185-5.466-0.757-0.756-1.671-0.529-2.199 0l-4.063 4.063zM17.403 19.619c-0.158-0.158-0.416-0.158-0.574 0l-1.293 1.292c-0.394-0.399-0.808-0.817-1.243-1.252-0.158-0.158-0.416-0.158-0.574 0s-0.158 0.416 0 0.574c3.009 3.009 5.111 5.256 5.142 5.289 0.279 0.28 0.661 0.433 1.075 0.433v0c0.427 0 0.858-0.167 1.125-0.435l4.061-4.109c0.511-0.511 0.54-1.378 0.063-1.857l-5.449-5.448c-0.158-0.158-0.416-0.158-0.574 0s-0.158 0.416 0 0.574l5.449 5.448c0.163 0.162 0.132 0.514-0.064 0.709l-4.062 4.109c-0.093 0.094-0.306 0.195-0.549 0.195 0 0 0 0 0 0-0.14 0-0.34-0.034-0.491-0.186-0.008-0.009-0.349-0.372-0.939-0.99l2.961-2.961c0.158-0.158 0.158-0.416 0-0.574s-0.416-0.158-0.574 0l-2.949 2.949c-0.507-0.527-1.129-1.168-1.836-1.89l1.297-1.297c0.158-0.158 0.158-0.414 0-0.574zM-0.238 25.861c0.078 0.080 0.183 0.122 0.291 0.122 0.039 0 0.078-0.006 0.116-0.017l8.125-2.42c0.066-0.020 0.124-0.054 0.172-0.103l13.886-13.979c0.020-0.019 0.029-0.045 0.044-0.067l2.971-2.971c0.239-0.24 0.371-0.557 0.371-0.896s-0.132-0.656-0.371-0.894l-4.253-4.253c-0.478-0.478-1.312-0.478-1.79 0l-3.038 3.038c-0.020 0.019-0.030 0.045-0.045 0.067l-13.907 13.908c-0.046 0.046-0.080 0.101-0.099 0.162l-2.568 7.893c-0.047 0.144-0.011 0.301 0.095 0.41zM16.595 4.283l0.844 0.844-12.612 12.647-1.403-0.319 13.171-13.172zM5.334 18.416l12.681-12.714 1.979 1.979-12.795 12.631h-1.865v-1.896zM21.49 9.178l-13.198 13.288-0.469-1.627 12.746-12.583 0.921 0.922zM2.891 18.167l1.631 0.37v2.182c0 0.224 0.182 0.406 0.406 0.406h2.132l0.515 1.787-6.896 2.055 2.212-6.801zM19.898 0.958c0.171-0.171 0.47-0.171 0.641 0l4.253 4.253c0.085 0.085 0.132 0.199 0.132 0.32s-0.047 0.235-0.133 0.321l-2.739 2.74-4.894-4.894 2.739-2.741z"></path>
</svg>
