<!-- Generated by IcoMoon.io -->
<svg version="1.1" xmlns="http://www.w3.org/2000/svg" width="26" height="26" viewBox="0 0 26 26">
<title>wordpress</title>
<path fill="#7E7E7E" d="M23.258 7.394c0.91 1.665 1.428 3.575 1.428 5.606 0 4.311-2.336 8.077-5.81 10.102l3.57-10.321c0.666-1.668 0.888-3.002 0.888-4.186 0-0.439-0.028-0.845-0.076-1.202zM14.612 7.506c0.701-0.032 1.335-0.114 1.335-0.114 0.63-0.081 0.557-1.008-0.073-0.974 0 0-1.901 0.146-3.12 0.146-1.153 0-3.088-0.163-3.088-0.163-0.634-0.032-0.716 0.926-0.081 0.959 0 0 0.585 0.066 1.219 0.098l1.82 4.989-2.567 7.67-4.256-12.643c0.703-0.032 1.337-0.108 1.337-0.108 0.634-0.081 0.559-1.008-0.070-0.971 0 0-1.891 0.149-3.113 0.149-0.217 0-0.474-0.009-0.748-0.016 2.115-3.117 5.716-5.213 9.794-5.213 3.043 0 5.812 1.161 7.893 3.069-0.050-0.003-0.099-0.010-0.153-0.010-1.148 0-1.963 1-1.963 2.074 0 0.964 0.556 1.78 1.148 2.742 0.445 0.78 0.964 1.78 0.964 3.225 0 0.991-0.384 2.16-0.889 3.769l-1.165 3.884-4.225-12.577 0.001 0.015zM13 24.683c-1.147 0-2.254-0.166-3.302-0.473l3.507-10.19 3.591 9.844c0.026 0.057 0.054 0.109 0.084 0.161-1.213 0.426-2.519 0.66-3.881 0.66zM1.312 13c0-1.694 0.364-3.304 1.013-4.756l5.573 15.274c-3.896-1.895-6.584-5.891-6.586-10.518zM13 0c-7.166 0-13 5.834-13 13s5.834 13 13 13 13-5.834 13-13-5.834-13-13-13z"></path>
</svg>
