<svg id="Layer_1" data-name="Layer 1" xmlns="http://www.w3.org/2000/svg" xmlns:xlink="http://www.w3.org/1999/xlink" viewBox="0 0 318.4 317.23"><defs><style>.cls-1{fill:none;}.cls-2,.cls-5{fill:#e82363;}.cls-3{fill:#ff0080;}.cls-4{fill:#fff;}.cls-5{stroke:#ff0080;stroke-miterlimit:10;}.cls-6{clip-path:url(#clip-path);}.cls-7{fill:#b3b3b3;}.cls-8{fill:#999;}.cls-9{fill:#e6e6e6;}.cls-10{fill:gray;}</style><clipPath id="clip-path" transform="translate(-244.12 -224.94)"><rect class="cls-1" x="331.96" y="310.88" width="158.28" height="135.18"/></clipPath></defs><title>logo</title><line class="cls-1" x1="74.85" y1="221.19" x2="74.85" y2="221.59"/><polygon class="cls-2" points="275.47 46.83 275.47 96.77 295.47 116.77 295.47 26.83 205.53 26.83 225.53 46.83 275.47 46.83"/><rect class="cls-3" x="387.36" y="218.28" width="1" height="94.56" transform="translate(-318.3 127.1) rotate(-45)"/><rect class="cls-4" x="487.74" y="196.27" width="1" height="198.17" transform="translate(-309.97 206.81) rotate(-45)"/><rect class="cls-3" x="531.38" y="401.68" width="1" height="85.66" transform="translate(-402.66 281.35) rotate(-45)"/><rect class="cls-3" x="333.33" y="472.07" width="1" height="53.79" transform="translate(-499.18 157.27) rotate(-45)"/><rect class="cls-3" x="366.88" y="452.14" width="4" height="85.66" transform="translate(-486.08 180.86) rotate(-45)"/><polygon class="cls-2" points="215.32 46.83 195.32 26.83 179.06 26.83 199.06 46.83 215.32 46.83"/><polygon class="cls-2" points="165.85 46.83 145.85 26.83 140.49 26.83 160.49 46.83 165.85 46.83"/><polygon class="cls-2" points="58.44 99.72 38.44 79.72 38.44 90.06 58.44 110.06 58.44 99.72"/><polygon class="cls-2" points="120.64 26.83 38.44 26.83 38.44 70.66 58.44 90.66 58.44 46.83 140.64 46.83 120.64 26.83"/><polygon class="cls-2" points="58.44 116.98 38.44 96.98 38.44 132.53 58.44 152.53 58.44 116.98"/><polygon class="cls-2" points="235.18 137.88 235.18 161.06 295.47 221.35 295.47 198.16 235.18 137.88"/><polygon class="cls-2" points="283.47 193.25 283.47 202.15 303.47 222.15 303.47 213.25 283.47 193.25"/><polygon class="cls-2" points="295.47 126.98 275.47 106.98 275.47 162.31 295.47 182.31 295.47 126.98"/><polygon class="cls-2" points="193.42 46.83 173.42 26.83 149.66 26.83 169.66 46.83 193.42 46.83"/><rect class="cls-4" x="276.9" y="311.96" width="1" height="93.12" transform="translate(-416.39 76.22) rotate(-45)"/><rect class="cls-4" x="491.86" y="462.34" width="1" height="93.12" transform="translate(-459.76 272.26) rotate(-45)"/><polygon class="cls-2" points="73.09 209.57 38.44 174.91 38.44 186.54 73.09 221.19 73.09 209.57"/><polygon class="cls-2" points="58.44 79.04 23.78 44.38 23.78 56.01 58.44 90.66 58.44 79.04"/><polygon class="cls-2" points="58.44 166.12 38.44 146.12 38.44 165 58.44 185 58.44 166.12"/><polygon class="cls-2" points="58.44 263.86 58.44 214.78 38.44 194.78 38.44 283.86 93.46 283.86 73.46 263.86 58.44 263.86"/><polygon class="cls-5" points="124.75 283.86 104.75 263.86 79.54 263.86 99.54 283.86 124.75 283.86"/><polygon class="cls-2" points="139.23 263.86 159.23 283.86 200.17 283.86 180.17 263.86 139.23 263.86"/><polygon class="cls-2" points="186.18 263.86 214.35 292.03 230.51 292.03 202.35 263.86 186.18 263.86"/><polygon class="cls-2" points="239.35 283.86 219.35 263.86 207.3 263.86 227.3 283.86 239.35 283.86"/><polygon class="cls-2" points="275.47 212.28 275.47 263.86 252.51 263.86 272.51 283.86 295.47 283.86 295.47 232.28 275.47 212.28"/><g id="My_Logo" data-name="My Logo"><g class="cls-6"><polygon class="cls-7" points="89.21 220.87 128.44 220.87 167.19 152.71 206.91 220.87 245.65 220.87 167.19 86.01 89.21 220.87"/><polygon class="cls-8" points="167.17 85.94 87.84 220.96 128.54 220.96 166.79 153.29 167.17 85.94"/><polygon class="cls-9" points="167.17 153.44 206.89 221.12 246.12 221.12 167.17 99.01 167.17 153.44"/><polygon class="cls-10" points="87.84 220.96 128.48 220.96 166.87 152.78 167.17 99.04 87.84 220.96"/><polygon class="cls-8" points="167.43 205.91 178.71 205.91 167.43 186.3 167.43 205.91"/><polygon class="cls-9" points="167.43 205.91 156.15 205.91 167.43 186.3 167.43 205.91"/></g></g></svg>