<svg xmlns="http://www.w3.org/2000/svg" viewBox="0 0 43.95 6.54" width="40"><defs><style>.cls-1{fill:#787878;}</style></defs><title>Asset 3</title><g id="Layer_2" data-name="Layer 2"><g id="Layer_1-2" data-name="Layer 1"><path id="css3-alt-brands" class="cls-1" d="M19.7.36l.45,5.14,2,.68,2-.68L24.68.36Zm4.06,1L23.7,2l-1.5.64h1.44l-.16,1.9-1.28.37-1.28-.38-.08-1h.63l.05.5.68.17.71-.2.05-.8H20.8l-.05-.6,1.45-.61.09,0h-1.6l-.07-.62Z"/><path id="html5-brands" class="cls-1" d="M10.26.36l.46,5.14,2,.68,2-.68L15.25.36Zm4,1.66H11.88l0,.64h2.28L14,4.59l-1.27.35h0l-1.28-.35-.08-1H12l0,.49.7.19.7-.19.07-.81H11.36L11.19,1.4h3.13Z"/><path id="js-brands" class="cls-1" d="M28.71.36V6.18h5.82V.36ZM31.88,4.9a.74.74,0,0,1-.65.82.49.49,0,0,1-.17,0,.85.85,0,0,1-.82-.5L30.69,5c.08.16.16.28.35.28s.29-.07.29-.34V3h.55V4.9Zm1.29.82a1,1,0,0,1-1-.56l.44-.25a.6.6,0,0,0,.54.33c.22,0,.37-.11.37-.27s-.15-.25-.4-.36L33,4.55c-.4-.17-.66-.38-.66-.83A.73.73,0,0,1,33.08,3h.06a.82.82,0,0,1,.78.44l-.43.27a.38.38,0,0,0-.35-.23.23.23,0,0,0-.26.21v0c0,.17.1.23.33.33l.14.06c.46.2.72.4.72.86s-.38.76-.9.76Z"/><path id="node-js-brands" class="cls-1" d="M41.05,6.54a.45.45,0,0,1-.25-.07L40,6c-.12-.07-.06-.09,0-.1a1.69,1.69,0,0,0,.36-.17,0,0,0,0,1,.06,0L41,6.1a.11.11,0,0,0,.08,0l2.4-1.38a.09.09,0,0,0,0-.07V1.88a.07.07,0,0,0,0-.06L41.09.44a0,0,0,0,0-.07,0l-2.4,1.38a.08.08,0,0,0,0,.07V4.65a.1.1,0,0,0,0,.07l.66.37c.35.18.57,0,.57-.24V2.12a.07.07,0,0,1,.07-.07h.31a.08.08,0,0,1,.07.07V4.85a.66.66,0,0,1-.71.75A1.09,1.09,0,0,1,39,5.45l-.62-.36a.51.51,0,0,1-.26-.44V1.89a.5.5,0,0,1,.26-.44L40.8.06a.55.55,0,0,1,.5,0l2.4,1.39a.5.5,0,0,1,.25.44V4.65a.5.5,0,0,1-.25.44L41.3,6.47A.43.43,0,0,1,41.05,6.54ZM43,3.81c0-.51-.35-.65-1.09-.75s-.82-.15-.82-.32.07-.34.62-.34.67.11.75.44a.06.06,0,0,0,.06.06h.31a.05.05,0,0,0,0,0s0,0,0-.05c0-.57-.42-.84-1.19-.84s-1.1.29-1.1.77.41.67,1.07.74.84.19.84.34-.21.39-.72.39S41,4.06,41,3.74a.07.07,0,0,0-.07-.06h-.31a.08.08,0,0,0-.07.07h0c0,.41.22.89,1.27.89.76,0,1.2-.3,1.2-.83Z"/><path id="react-brands" class="cls-1" d="M5.43,2.25l-.21-.07,0-.14c.16-.78,0-1.4-.3-1.6s-.9,0-1.46.5a1.07,1.07,0,0,0-.16.14L3.22,1C2.63.46,2,.24,1.68.45s-.44.78-.3,1.51c0,.07,0,.14.05.22l-.24.07C.5,2.49,0,2.87,0,3.26s.53.82,1.25,1.06l.18.06-.06.23c-.13.72,0,1.29.31,1.49s.94,0,1.52-.51l.13-.12.18.16c.56.47,1.11.67,1.44.47s.47-.81.32-1.56a1.16,1.16,0,0,0,0-.18l.12,0c.75-.24,1.3-.64,1.3-1.06S6.13,2.49,5.43,2.25ZM3.67,1.14C4.16.72,4.61.56,4.81.68s.3.63.17,1.3l0,.13A8.49,8.49,0,0,0,4.07,2a7.23,7.23,0,0,0-.55-.69l.15-.13ZM2,3.6l.19.34.21.34-.61-.1A5.71,5.71,0,0,1,2,3.6Zm0-.66a4.74,4.74,0,0,1-.2-.56,4.83,4.83,0,0,1,.59-.1,2.63,2.63,0,0,0-.2.33Zm.15.33.28-.53c.1-.17.21-.34.32-.5l.59,0,.6,0c.11.16.21.33.31.5s.2.35.29.53c-.09.18-.19.35-.29.53a5.19,5.19,0,0,1-.31.5,5.82,5.82,0,0,1-.6,0,5.72,5.72,0,0,1-.59,0c-.11-.16-.22-.33-.32-.5s-.19-.35-.28-.53Zm2.35.67.19-.35c.08.19.15.38.22.57-.21,0-.41.08-.61.11l.2-.33Zm.18-1L4.48,2.6c-.07-.11-.13-.22-.2-.32a5.58,5.58,0,0,1,.59.1,5.37,5.37,0,0,1-.21.56ZM3.33,1.48c.13.15.26.31.38.47-.26,0-.52,0-.77,0A4.63,4.63,0,0,1,3.33,1.48ZM1.82.69c.22-.13.7.05,1.21.5l.1.09A7.34,7.34,0,0,0,2.57,2a6.56,6.56,0,0,0-.87.14,1.77,1.77,0,0,1,0-.2c-.13-.63,0-1.11.16-1.22ZM1.5,4.11l-.16-.05a2.87,2.87,0,0,1-.82-.41.56.56,0,0,1-.24-.39c0-.23.41-.54,1-.74l.23-.07a6.26,6.26,0,0,0,.31.82,7.67,7.67,0,0,0-.32.84ZM3,5.38a2.48,2.48,0,0,1-.74.46.59.59,0,0,1-.45,0c-.21-.12-.3-.58-.18-1.2a2.25,2.25,0,0,1,.05-.22,5.19,5.19,0,0,0,.88.13,6.25,6.25,0,0,0,.56.69L3,5.38Zm.31-.31-.39-.48h.78a4.54,4.54,0,0,1-.39.48ZM5,5.45a.59.59,0,0,1-.21.41c-.21.12-.65,0-1.13-.44l-.16-.15a6.28,6.28,0,0,0,.55-.7A6.67,6.67,0,0,0,5,4.44s0,.1,0,.15a2.5,2.5,0,0,1,0,.86Zm.24-1.39-.11,0a7.43,7.43,0,0,0-.34-.82,6.32,6.32,0,0,0,.32-.82l.2.06c.6.21,1,.52,1,.75s-.46.59-1.1.8ZM3.32,2.68a.59.59,0,1,1,0,1.18.58.58,0,0,1-.59-.59h0a.58.58,0,0,1,.59-.59h0"/></g></g></svg>